HIERARCHY
ROOT Hips
{
  OFFSET 55.0626 94.4409 34.4029
  CHANNELS 6 Xposition Yposition Zposition Zrotation Xrotation Yrotation
  JOINT spine
  {
    OFFSET 0 7.80059 0.448573
    CHANNELS 3 Zrotation Xrotation Yrotation
    JOINT spine1
    {
      OFFSET 0 10.1364 0
      CHANNELS 3 Zrotation Xrotation Yrotation
      JOINT spine2
      {
        OFFSET 0 9.71251 0
        CHANNELS 3 Zrotation Xrotation Yrotation
        JOINT Neck
        {
          OFFSET 0 24.9361 1.18887
          CHANNELS 3 Zrotation Xrotation Yrotation
          JOINT Head
          {
            OFFSET 0 7.53384 0
            CHANNELS 3 Zrotation Xrotation Yrotation
            End Site
            {
              OFFSET 0 18.2361 -6.01402
            }
          }
        }
        JOINT RightShoulder
        {
          OFFSET -4.08965 10.4888 -0.569457
          CHANNELS 3 Zrotation Xrotation Yrotation
          JOINT RightArm
          {
            OFFSET 0 13.757 0
            CHANNELS 3 Zrotation Xrotation Yrotation
            JOINT RightArmRoll
            {
              OFFSET 0 6.94478 0
              CHANNELS 3 Zrotation Xrotation Yrotation
              JOINT RightForeArm
              {
                OFFSET 0 20.2277 0
                CHANNELS 3 Zrotation Xrotation Yrotation
                JOINT RightForeArmRoll
                {
                  OFFSET 0 7.79312 0
                  CHANNELS 3 Zrotation Xrotation Yrotation
                  JOINT RightHand
                  {
                    OFFSET 0 15.6391 0
                    CHANNELS 3 Zrotation Xrotation Yrotation
                    End Site
                    {
                      OFFSET 0 0 0
                    }
                  }
                }
              }
            }
          }
        }
        JOINT LeftShoulder
        {
          OFFSET 4.08965 10.4888 -0.569457
          CHANNELS 3 Zrotation Xrotation Yrotation
          JOINT LeftArm
          {
            OFFSET 0 13.757 0
            CHANNELS 3 Zrotation Xrotation Yrotation
            JOINT LeftArmRoll
            {
              OFFSET 0 6.94478 0
              CHANNELS 3 Zrotation Xrotation Yrotation
              JOINT LeftForeArm
              {
                OFFSET 0 20.2277 0
                CHANNELS 3 Zrotation Xrotation Yrotation
                JOINT LeftForeArmRoll
                {
                  OFFSET 0 7.79312 0
                  CHANNELS 3 Zrotation Xrotation Yrotation
                  JOINT LeftHand
                  {
                    OFFSET 0 15.6391 0
                    CHANNELS 3 Zrotation Xrotation Yrotation
                    End Site
                    {
                      OFFSET 0 0 0
                    }
                  }
                }
              }
            }
          }
        }
      }
    }
  }
  JOINT RightUpLeg
  {
    OFFSET -6.91416 -1.26788 -1.06358
    CHANNELS 3 Zrotation Xrotation Yrotation
    JOINT RightUpLegRoll
    {
      OFFSET 0 18.3378 0
      CHANNELS 3 Zrotation Xrotation Yrotation
      JOINT RightLeg
      {
        OFFSET 0 -22.7085 0
        CHANNELS 3 Zrotation Xrotation Yrotation
        JOINT RightLegRoll
        {
          OFFSET 0 22.7828 0
          CHANNELS 3 Zrotation Xrotation Yrotation
          JOINT RightFoot
          {
            OFFSET 0 18.9629 0
            CHANNELS 3 Zrotation Xrotation Yrotation
            JOINT RightToeBase
            {
              OFFSET 0 15.852 0
              CHANNELS 3 Zrotation Xrotation Yrotation
              End Site
              {
                OFFSET 0.00671906 7.677 -0.884893
              }
            }
          }
        }
      }
    }
  }
  JOINT LeftUpLeg
  {
    OFFSET 6.91416 -1.26788 -1.06358
    CHANNELS 3 Zrotation Xrotation Yrotation
    JOINT LeftUpLegRoll
    {
      OFFSET 0 18.3379 0
      CHANNELS 3 Zrotation Xrotation Yrotation
      JOINT LeftLeg
      {
        OFFSET 0 22.7084 0
        CHANNELS 3 Zrotation Xrotation Yrotation
        JOINT LeftLegRoll
        {
          OFFSET 0 22.9934 0
          CHANNELS 3 Zrotation Xrotation Yrotation
          JOINT LeftFoot
          {
            OFFSET 0 18.7522 0
            CHANNELS 3 Zrotation Xrotation Yrotation
            JOINT LeftToeBase
            {
              OFFSET 0 15.852 0
              CHANNELS 3 Zrotation Xrotation Yrotation
              End Site
              {
                OFFSET -0.030112 7.67701 -0.884893
              }
            }
          }
        }
      }
    }
  }
}
MOTION
Frames: 5
Frame Time: 0.00208333
50.4763 65.3976 11.4247 -5.73858 24.293 14.9916 0.433822 3.4708 -0.319769 0.901366 10.9415 -0.726546 0.91353 12.5865 -0.74389 -34.0745 -38.3599 -22.6074 20.0004 2.0498 -12.9355 36.3207 -11.4224 -7.47244 136.688 42.4718 -74.3188 -3.10104e-014 -4.06515e-014 -6.99722e-014 32.3659 47.6529 -12.3105 -5.06346e-006 7.99851e-006 -3 8.02883 -4.95131 0.697461 -54.1969 -9.82689 6.0847 -100.532 40.5216 39.1701 5.10651e-006 6.26097e-006 -2.4816e-006 -25.0808 46.337 13.3914 4.24456e-006 1.67822e-005 3 -8.02987 -4.95091 -0.697537 65.3139 83.9609 115.426 180 3.05147e-005 179.211 -121.809 89.7951 120.281 -5.05698e-006 -6.87666e-006 1.93765 -60.6635 82.9612 64.046 8.13649 25.2326 -3.48774 -73.9593 81.3026 -113.385 4.5067e-006 -1.99009e-005 -1.24411 -54.8374 -86.5126 -50.8079 -1.59878e-006 2.89667e-007 -2.40423 59.4517 80.7305 -54.8019 -8.13947 25.2769 3.49139 
50.4999 65.5536 11.5084 -5.72866 24.2516 14.9972 0.429058 3.45866 -0.314363 0.891223 10.9173 -0.714649 0.903197 12.5623 -0.731783 -34.0577 -38.3464 -22.6083 20.0341 2.04635 -12.9424 36.476 -11.3859 -7.43493 136.84 42.5257 -74.1022 -1.03368e-014 -7.36497e-014 -2.06736e-014 32.4619 47.0996 -12.1552 -5.06346e-006 7.99851e-006 -3 8.02883 -4.95131 0.697461 -54.2955 -9.77276 6.04817 -100.848 40.6346 38.9451 5.10651e-006 6.26097e-006 -2.4816e-006 -24.9422 45.7261 13.1194 4.24456e-006 1.67822e-005 3 -8.02987 -4.95091 -0.697537 67.9204 84.0802 112.793 180 3.05147e-005 179.212 -156.182 89.6315 154.633 -5.05698e-006 -6.87666e-006 1.93289 -60.8407 82.9742 64.2262 8.13649 25.2326 -3.48774 -75.8116 81.3763 -111.485 4.5067e-006 -1.99009e-005 -1.23957 -52.3837 -86.3228 -48.3054 -1.59878e-006 2.89667e-007 -2.39073 59.4631 80.7326 -54.8154 -8.13948 25.277 3.49141 
50.5285 65.7067 11.5849 -5.71829 24.209 15.0034 0.424301 3.44627 -0.30911 0.881105 10.8926 -0.703062 0.892893 12.5375 -0.719988 -34.0431 -38.3249 -22.6071 20.077 2.03672 -12.9476 36.6329 -11.3498 -7.39807 136.994 42.5827 -73.8855 -2.0276e-014 -3.37934e-014 -4.77083e-014 32.5615 46.5334 -11.9975 -5.06346e-006 7.99851e-006 -3 8.02883 -4.95131 0.697461 -54.3957 -9.71619 6.01005 -101.174 40.7501 38.7102 5.10651e-006 6.26097e-006 -2.4816e-006 -24.7991 45.0966 12.8428 4.24456e-006 1.67822e-005 3 -8.02987 -4.95091 -0.697537 70.6574 84.1864 110.028 180 3.05147e-005 179.213 -167.76 89.4179 166.19 -5.05698e-006 -6.87666e-006 1.92794 -61.0078 82.9866 64.3971 8.13649 25.2326 -3.48774 -77.7127 81.4417 -109.537 4.5067e-006 -1.99009e-005 -1.23505 -50.1535 -86.1239 -46.0256 -1.59878e-006 2.89667e-007 -2.37701 59.4684 80.7336 -54.8215 -8.13949 25.2771 3.49143 
50.3749 65.8981 11.6871 -5.70759 24.165 15.0101 0.419585 3.43369 -0.303987 0.871082 10.8675 -0.691746 0.882688 12.5125 -0.708465 -34.0295 -38.2972 -22.6039 20.1263 2.02217 -12.9513 36.7915 -11.3143 -7.3619 137.151 42.6427 -73.6689 -4.37326e-015 2.3059e-014 -4.77083e-015 32.6635 45.9551 -11.837 -5.06346e-006 7.99851e-006 -3 8.02883 -4.95131 0.697461 -54.4975 -9.65736 5.9705 -101.506 40.8669 38.4668 5.10651e-006 6.26097e-006 -2.4816e-006 -24.6537 44.4525 12.5642 4.24456e-006 1.67822e-005 3 -8.02987 -4.95091 -0.697537 73.5187 84.2783 107.138 180 3.05147e-005 179.214 -173.06 89.1907 171.469 -5.05698e-006 -6.87666e-006 1.9228 -61.164 82.9983 64.5579 8.13649 25.2326 -3.48774 -79.6594 81.4981 -107.542 4.5067e-006 -1.99009e-005 -1.23055 -48.1245 -85.917 -43.9465 -1.59878e-006 2.89667e-007 -2.3631 59.4672 80.7337 -54.8201 -8.13949 25.2773 3.49145 
50.3984 66.04 11.7743 -5.69664 24.1197 15.0173 0.414947 3.42099 -0.298971 0.861226 10.8422 -0.68066 0.872652 12.4871 -0.697176 -34.0156 -38.2655 -22.5988 20.1791 2.00396 -12.9538 36.9517 -11.2794 -7.32645 137.309 42.7057 -73.4526 -5.1684e-015 2.78299e-014 -1.43125e-014 32.7668 45.3656 -11.6736 -5.06346e-006 7.99851e-006 -3 8.02883 -4.95131 0.697461 -54.6012 -9.59642 5.92965 -101.841 40.9842 38.2166 5.10651e-006 6.26097e-006 -2.4816e-006 -24.5077 43.7982 12.2859 4.24456e-006 1.67822e-005 3 -8.02987 -4.95091 -0.697537 76.4947 84.3546 104.133 180 3.05147e-005 179.215 -176.055 88.9569 174.442 -5.05698e-006 -6.87666e-006 1.91747 -61.309 83.0092 64.7078 8.13649 25.2326 -3.48774 -81.6483 81.5453 -105.506 4.5067e-006 -1.99009e-005 -1.22607 -46.2757 -85.7027 -42.047 -1.59878e-006 2.89667e-007 -2.34899 59.4592 80.7328 -54.8111 -8.1395 25.2774 3.49147 
